# xmcd
#
# Track frame offsets:
#	150
#	15043
#	30270
#	44754
#	66594
#	85433
#	105313
#	124908
#	141553
#	158339
#	175446
#	190204
#	207611
#	222204
#
# Disc length: 3201 seconds
#
# Revision: 4
# Processed by: cddbd v1.5.2PL0 Copyright (c) Steve Scherf et al.
# Submitted via: Jack! The Knife 18 Bulletproof
#
DISCID=c70c7f0e
DTITLE=Giorgia - Spirito Libero [CD 2)
DYEAR=2008
DGENRE=Pop
TTITLE0=Via Col Vento
TTITLE1=Un'amore Da Favola
TTITLE2=Mal Di Terra
TTITLE3=C'è Ancora Mare
TTITLE4=La Gatta (Sul Tetto)
TTITLE5=Nessun Dolore
TTITLE6=Vivi Davvero
TTITLE7=La Verità
TTITLE8=Una Hora Sola Te Querré
TTITLE9=Anime Sole
TTITLE10=La La Song (Non Credo Di Essere Al Sicuro)
TTITLE11=Girasole
TTITLE12=Libera La Mente
TTITLE13=Spirito Libero
EXTD=
EXTT0=
EXTT1=
EXTT2=
EXTT3=
EXTT4=
EXTT5=
EXTT6=
EXTT7=
EXTT8=
EXTT9=
EXTT10=
EXTT11=
EXTT12=
EXTT13=
PLAYORDER=
